<svg width="24" height="24" xmlns="http://www.w3.org/2000/svg" fill-rule="evenodd" clip-rule="evenodd"><defs>
    <linearGradient id="grad1" gradientTransform="rotate(45)" x1="0%" y1="0%" x2="150%" y2="50%" >
      <stop offset="0%" style="stop-color:#F17AE9;stop-opacity:1" />
      <stop offset="100%" style="stop-color:#21D2FF;stop-opacity:1" />
    </linearGradient>
  </defs><path fill="url(#grad1)" d="M1 24h-1v-2h.998l.014-9h3.988v-3h2v3h2v-3h2v3h2v-3h2v3h2v-3h2v3h4v9h1v2h-23zm20-7h-18v5h2v-3c0-.552.448-1 1-1s1 .448 1 1v3h2v-3c0-.552.448-1 1-1s1 .448 1 1v3h2v-3c0-.552.448-1 1-1s1 .448 1 1v3h2v-3c0-.552.448-1 1-1s1 .448 1 1v3h2v-5zm-6-15h-3v1c2.966 0 6.158 1.979 7 6h-14c.547-3.78 3.638-5.827 6-6v-3h4v2z"/></svg>
