<svg xmlns="http://www.w3.org/2000/svg" xmlns:xlink="http://www.w3.org/1999/xlink" viewBox="0 0 513.33 565.71"><defs><style>.cls-1{mask:url(#mask);}.cls-2,.cls-4,.cls-6{mix-blend-mode:multiply;}.cls-2{fill:url(#linear-gradient);}.cls-3{mask:url(#mask-2);}.cls-4{fill:url(#linear-gradient-2);}.cls-5{mask:url(#mask-3);}.cls-6{fill:url(#linear-gradient-3);}.cls-7{isolation:isolate;}.cls-8{fill:url(#linear-gradient-4);}.cls-9{mix-blend-mode:overlay;}.cls-10{mask:url(#mask-4);}.cls-11{fill:url(#linear-gradient-5);}.cls-12{fill:#fff;}.cls-13{fill:url(#linear-gradient-6);}.cls-14{mask:url(#mask-5);}.cls-15{fill:url(#linear-gradient-7);}.cls-16{fill:url(#linear-gradient-8);}.cls-17{mask:url(#mask-6);}.cls-18{fill:url(#linear-gradient-9);}.cls-19{filter:url(#luminosity-noclip-6);}.cls-20{filter:url(#luminosity-noclip-5);}.cls-21{filter:url(#luminosity-noclip-4);}.cls-22{filter:url(#luminosity-noclip-3);}.cls-23{filter:url(#luminosity-noclip-2);}.cls-24{filter:url(#luminosity-noclip);}</style><filter id="luminosity-noclip" x="569.61" y="-8942" width="403.73" height="32766" filterUnits="userSpaceOnUse" color-interpolation-filters="sRGB"><feFlood flood-color="#fff" result="bg"/><feBlend in="SourceGraphic" in2="bg"/></filter><mask id="mask" x="569.61" y="-8942" width="403.73" height="32766" maskUnits="userSpaceOnUse"><g class="cls-24"/></mask><linearGradient id="linear-gradient" x1="837.93" y1="486.86" x2="1187.56" y2="486.86" gradientTransform="translate(-349.87 603.18) rotate(-29.38)" gradientUnits="userSpaceOnUse"><stop offset="0"/><stop offset="0.05" stop-color="#0f0f0f"/><stop offset="0.32" stop-color="#636363"/><stop offset="0.56" stop-color="#a6a6a6"/><stop offset="0.76" stop-color="#d6d6d6"/><stop offset="0.91" stop-color="#f4f4f4"/><stop offset="1" stop-color="#fff"/></linearGradient><filter id="luminosity-noclip-2" x="529.91" y="-8942" width="203.17" height="32766" filterUnits="userSpaceOnUse" color-interpolation-filters="sRGB"><feFlood flood-color="#fff" result="bg"/><feBlend in="SourceGraphic" in2="bg"/></filter><mask id="mask-2" x="529.91" y="-8942" width="203.17" height="32766" maskUnits="userSpaceOnUse"><g class="cls-23"/></mask><linearGradient id="linear-gradient-2" x1="664.45" y1="617.06" x2="893.18" y2="617.06" xlink:href="#linear-gradient"/><filter id="luminosity-noclip-3" x="798.67" y="-8942" width="205.63" height="32766" filterUnits="userSpaceOnUse" color-interpolation-filters="sRGB"><feFlood flood-color="#fff" result="bg"/><feBlend in="SourceGraphic" in2="bg"/></filter><mask id="mask-3" x="798.67" y="-8942" width="205.63" height="32766" maskUnits="userSpaceOnUse"><g class="cls-22"/></mask><linearGradient id="linear-gradient-3" x1="838.37" y1="751.11" x2="1188" y2="751.11" xlink:href="#linear-gradient"/><linearGradient id="linear-gradient-4" x1="616.94" y1="364.67" x2="1351.42" y2="591.43" gradientTransform="translate(-349.87 603.18) rotate(-29.38)" gradientUnits="userSpaceOnUse"><stop offset="0" stop-color="#45ecff"/><stop offset="0.36" stop-color="#2ea9ff"/><stop offset="0.48" stop-color="#6280ff"/><stop offset="0.6" stop-color="#915bff"/><stop offset="0.72" stop-color="#b73dff"/><stop offset="0.83" stop-color="#d228ff"/><stop offset="0.93" stop-color="#e21cff"/><stop offset="1" stop-color="#e817ff"/></linearGradient><filter id="luminosity-noclip-4" x="569.61" y="416.44" width="403.73" height="228.45" filterUnits="userSpaceOnUse" color-interpolation-filters="sRGB"><feFlood flood-color="#fff" result="bg"/><feBlend in="SourceGraphic" in2="bg"/></filter><mask id="mask-4" x="58.1" y="20.37" width="403.73" height="228.45" maskUnits="userSpaceOnUse"><g class="cls-21"><g transform="translate(-511.52 -396.06)"><g class="cls-1"><path class="cls-2" d="M777.78,643a15,15,0,0,1-14.92-.16L569.61,528.43,765.17,418.35a15,15,0,0,1,14.93.16L973.35,532.89Z"/></g></g></g></mask><linearGradient id="linear-gradient-5" x1="837.93" y1="486.86" x2="1187.56" y2="486.86" gradientTransform="translate(-349.87 603.18) rotate(-29.38)" gradientUnits="userSpaceOnUse"><stop offset="0" stop-color="#231f20"/><stop offset="1" stop-color="#231f20"/></linearGradient><linearGradient id="linear-gradient-6" x1="578.05" y1="555.52" x2="1327.97" y2="787.04" xlink:href="#linear-gradient-4"/><filter id="luminosity-noclip-5" x="529.91" y="582.75" width="203.17" height="352.21" filterUnits="userSpaceOnUse" color-interpolation-filters="sRGB"><feFlood flood-color="#fff" result="bg"/><feBlend in="SourceGraphic" in2="bg"/></filter><mask id="mask-5" x="18.39" y="186.69" width="203.17" height="352.21" maskUnits="userSpaceOnUse"><g class="cls-20"><g transform="translate(-511.52 -396.06)"><g class="cls-3"><path class="cls-4" d="M537.23,820.48a15,15,0,0,1-7.32-13l2.47-224.73L725.76,697.24a15,15,0,0,1,7.32,13L730.64,935Z"/></g></g></g></mask><linearGradient id="linear-gradient-7" x1="664.45" y1="617.06" x2="893.18" y2="617.06" xlink:href="#linear-gradient-5"/><linearGradient id="linear-gradient-8" x1="520.77" y1="599.09" x2="1271.96" y2="831" xlink:href="#linear-gradient-4"/><filter id="luminosity-noclip-6" x="798.67" y="586.98" width="205.63" height="347.47" filterUnits="userSpaceOnUse" color-interpolation-filters="sRGB"><feFlood flood-color="#fff" result="bg"/><feBlend in="SourceGraphic" in2="bg"/></filter><mask id="mask-6" x="287.15" y="190.91" width="205.63" height="347.47" maskUnits="userSpaceOnUse"><g class="cls-19"><g transform="translate(-511.52 -396.06)"><g class="cls-5"><path class="cls-6" d="M798.67,934.45l2.46-224.55a14.93,14.93,0,0,1,7.6-12.83L1004.3,587l-2.45,224.56a15,15,0,0,1-7.62,12.83Z"/></g></g></g></mask><linearGradient id="linear-gradient-9" x1="838.37" y1="751.11" x2="1188" y2="751.11" xlink:href="#linear-gradient-5"/></defs><title>logo</title><g class="cls-7"><g id="Layer_1" data-name="Layer 1"><path class="cls-8" d="M732.16,648.33l20.3,12a35.37,35.37,0,0,0,35.32.39l20.6-11.6,188-105.81a11.77,11.77,0,0,0,.23-20.38L790.49,401a35.4,35.4,0,0,0-35.31-.37L546.62,518a11.76,11.76,0,0,0-.23,20.38Z" transform="translate(-511.52 -396.06)"/><g class="cls-9"><g class="cls-10"><path class="cls-11" d="M777.78,643a15,15,0,0,1-14.92-.16L569.61,528.43,765.17,418.35a15,15,0,0,1,14.93.16L973.35,532.89Z" transform="translate(-511.52 -396.06)"/></g><path class="cls-12" d="M983.54,533,780.28,647.42a20.08,20.08,0,0,1-20-.22L559.42,528.32,762.68,413.91a20.1,20.1,0,0,1,20,.2ZM579.8,528.55,765.45,638.44a9.88,9.88,0,0,0,9.83.1L963.15,532.78,777.51,422.89a9.86,9.86,0,0,0-9.83-.1Z" transform="translate(-511.52 -396.06)"/></g><path class="cls-13" d="M755.22,734.09l.25-23.63a35.35,35.35,0,0,0-17.33-30.76l-20.35-12.05-185.87-110a11.77,11.77,0,0,0-17.77,10l-2.63,239.64A35.42,35.42,0,0,0,528.83,838L735.08,960.12a11.78,11.78,0,0,0,17.77-10Z" transform="translate(-511.52 -396.06)"/><g class="cls-9"><g class="cls-14"><path class="cls-15" d="M537.23,820.48a15,15,0,0,1-7.32-13l2.47-224.73L725.76,697.24a15,15,0,0,1,7.32,13L730.64,935Z" transform="translate(-511.52 -396.06)"/></g><path class="cls-12" d="M735.64,943.85l-201-119a20.06,20.06,0,0,1-9.82-17.44l2.56-233.55,201,119a20.07,20.07,0,0,1,9.82,17.46ZM537.37,591.63,535,807.54a9.87,9.87,0,0,0,4.82,8.56l185.81,110L728,710.19a9.86,9.86,0,0,0-4.82-8.56Z" transform="translate(-511.52 -396.06)"/></g><path class="cls-16" d="M819.34,667.7l-20.61,11.6a35.36,35.36,0,0,0-18,30.38l-.25,23.63-2.37,215.85a11.77,11.77,0,0,0,17.54,10.39l208.57-117.4a35.43,35.43,0,0,0,18-30.39l2.62-239.48a11.77,11.77,0,0,0-17.54-10.39Z" transform="translate(-511.52 -396.06)"/><g class="cls-9"><g class="cls-17"><path class="cls-18" d="M798.67,934.45l2.46-224.55a14.93,14.93,0,0,1,7.6-12.83L1004.3,587l-2.45,224.56a15,15,0,0,1-7.62,12.83Z" transform="translate(-511.52 -396.06)"/></g><path class="cls-12" d="M996.73,828.81,793.48,943.22,796,709.84a20,20,0,0,1,10.2-17.21l203.26-114.42L1007,811.59A20.1,20.1,0,0,1,996.73,828.81ZM803.86,925.69,991.73,819.93a9.86,9.86,0,0,0,5-8.45l2.36-215.73L811.23,701.51a9.87,9.87,0,0,0-5,8.45Z" transform="translate(-511.52 -396.06)"/></g></g></g></svg>